<svg xmlns="http://www.w3.org/2000/svg" width="174.775" height="25.405" viewBox="0 0 174.775 25.405"><g transform="translate(-412.99 -387.326)">
											<path d="M457.771,400.879c.455.043.7.233.553.422l.346.139.094.038a.217.217,0,0,0,.256-.135l-.035-.068-.039-.076a.815.815,0,0,1,.206-.206l.072-.053.325-.179.135-.18c.094.112.2.152.229.089a.893.893,0,0,1,.305-.235c.128-.068.539.031.573-.012s.284-.034.315-.12l.118-.038.025-.009c.025-.013.372-.146.772-.3l.417.064.042.007a.287.287,0,0,0,.19-.1.8.8,0,0,1,.434-.154,3.871,3.871,0,0,0,.694-.21l.179-.024.056-.007a.334.334,0,0,0,.305-.054,2.9,2.9,0,0,1,.524-.308c.105-.024.585-.169.84-.244l.262-.018.2-.014a4.073,4.073,0,0,0,.6-.4c.12-.105.637.087.775.058l.091-.067c.094-.069.124-.193.211-.271l.02-.018a1.094,1.094,0,0,0,.624-.05c.227-.078.821-.315.9-.248s.5-.131.672-.2l.1-.1.256-.248c.265.132.5.2.523.152l.01-.044.028-.126a1.014,1.014,0,0,0,.4-.122,5.768,5.768,0,0,0,.551-.317c.124-.107.533.109.567.085s.3-.15.516-.244.786-.353.8-.368a3.223,3.223,0,0,1,.486-.059c.249-.021.89-.247.949-.227a1.7,1.7,0,0,0,.576-.181,5.63,5.63,0,0,1,1.029-.178c.028-.007.116-.071.043-.1s-.087-.185.1-.306.8.081.83.057.238-.1.376-.166.612-.112.677-.175l.068-.055c.054-.043.124-.108.183-.1l.173.01a.727.727,0,0,0,.579-.172l.137-.048.191-.067a7.183,7.183,0,0,1,.806.1,3.31,3.31,0,0,0,1.062-.437,3.831,3.831,0,0,1,1.374.051l.2-.148a.87.87,0,0,1,.362-.154l.2-.034a.876.876,0,0,0,.664-.021l.177-.059c.06-.02.177.106.263.1l.277-.015c.3-.062.639-.129.755-.149s.478.114.629.066a4.892,4.892,0,0,1,.851.082l.138-.014.065-.007a1.757,1.757,0,0,1,.508-.042c.215.007,1.027.265,1.419.306s1.835.083,2.322.076l.312.32a.282.282,0,0,0,.438.017l.018-.015c.124.064.273.135.33.156a1,1,0,0,0,.327-.014c.1-.016.326.162.436.24s.533.405.74.524a5.062,5.062,0,0,1,.945,1.147l.3.25.02.016c-.044.072.019.3.141.5s.394.788.412.825.09.332.15.547l.072.193c.049.131.382.133.238.359l-.147.233a1.3,1.3,0,0,1,.537.252c.051.072.275.414.371.6l.148.054.261.094c.324.047.752.095.95.106s.87-.007,1.046.026l.163.026.137.022a1.849,1.849,0,0,0,.572-.081,7.372,7.372,0,0,0,1.087-.127l.179.178c.118.118.122-.076.123-.138,0-.224.068-.331.354-.176l.043.024c.077-.009.167-.121.2-.248l.2.141.053.036a.644.644,0,0,1,.425-.061c.047.04.23.151.277.137l.041-.013c.382-.122.766-.242,1.146-.368l.228-.076c.24-.1.556-.239.7-.313l.207.087.143.06a.782.782,0,0,1,.379-.259l.062.009.091.012a5.3,5.3,0,0,0,.78-.164.439.439,0,0,1,.348.128c.115.114.46-.231.582-.233s.435-.2.52-.191a.63.63,0,0,0,.414-.176c.053-.1.364.058.391.019a.984.984,0,0,1,.532-.2l.228-.007.111,0a2.214,2.214,0,0,0,.6-.337l.3.053.223.04a4.251,4.251,0,0,0,.645-.135,5.5,5.5,0,0,1,.585-.242l.153.036c.351.08.606-.026,1.133-.348l.037-.023a3.6,3.6,0,0,0,.714-.041l.181-.116.053-.034c.1.006.166.057.145.112l-.01.052-.025.127c.042.158.164.143.269-.032l.148-.114.152-.117c.228-.082.362-.079.3.007s.13.271.509.177a9.192,9.192,0,0,0,1.17-.221,1.4,1.4,0,0,0-.709.037l-.118.047-.083.033c-.119-.009-.214-.056-.212-.107a.848.848,0,0,1,.343-.3,4.518,4.518,0,0,1,.777-.094c.039-.02.164-.119.21-.059a1.328,1.328,0,0,0,.838-.051l.236-.134a.386.386,0,0,1,.445-.01.677.677,0,0,0,.783-.1l.081-.076a2.88,2.88,0,0,1,.543-.042,2.6,2.6,0,0,1,.851.032l.212-.143.18-.122.469-.079c.019,0,.255,0,.505,0a6.555,6.555,0,0,0,1.02-.081.81.81,0,0,1,.6.07c.2.129.972-.134,1.1-.146l.113.021c.126.023.278.139.354.108.1-.039.116-.2.2-.279l.068-.062a.627.627,0,0,1,.353.015.506.506,0,0,0,.343-.029.558.558,0,0,1,.339-.085l.064,0a1.36,1.36,0,0,0,.585,0c.225-.114.394-.187.62-.034l.03.021a.54.54,0,0,0,.267-.145c.1-.083.657.032.815.037s.573-.087.589-.2.464.018.6.1.8.068.892.116.342-.122.426-.1a.7.7,0,0,0,.472-.066,1.036,1.036,0,0,1,.723-.156l.122.08.4.26c-.139-.246-.094-.372.1-.281s.8.162.856.2.266.133.3.078.273-.374.414-.58l.344.231c.2.135.57-.039.8.177l.037.035a1.8,1.8,0,0,0,.467-.167,2.219,2.219,0,0,1,.824-.034l.222.02.133.012c.154-.037.415-.087.581-.112s.972.068,1.1.048a1.454,1.454,0,0,1,.534,0,.483.483,0,0,0,.343.181c.143-.011.251-.336.287-.339s.415.072.777.145l.317-.074.085-.02a1.6,1.6,0,0,1,.583.041,6.9,6.9,0,0,1,1.234.161l.23-.185c.156-.124.237-.21.279.065.02.131.208.106.344.015l.122-.081a2.554,2.554,0,0,0,.617-.1l.158-.029.042-.008a2.06,2.06,0,0,0,.246.219,2.105,2.105,0,0,0,.664.051l.035-.027.219-.167a.75.75,0,0,0,.495.15l.1-.036.148-.055a9.149,9.149,0,0,0,1.067-.143,4.064,4.064,0,0,1,1.089.119l.178-.112.169-.106a2.856,2.856,0,0,0,.8.065,7.5,7.5,0,0,0,1.075-.013l.087-.04.024-.011c.03-.026.072-.009.092.039a.232.232,0,0,0,.334-.013c.13-.135.846.024,1.052-.009a2.183,2.183,0,0,1,.706.212c.011-.008.191-.076.374-.141a9.274,9.274,0,0,1,1.486,0l.136-.039.043-.012c.026-.137.1-.194.161-.128a1,1,0,0,0,.419.167,3.431,3.431,0,0,0,.692-.2,2.953,2.953,0,0,1,1.012.051c.107.03.585-.022.774.027l.173-.01.078,0a.234.234,0,0,1,.334-.118.635.635,0,0,0,.495.005c.085-.058.517-.012.726-.143l.175.256,0,0c.031-.01.231-.047.442-.083s.7-.1.819-.128a1.271,1.271,0,0,1,.634.1c.119.085.569-.12.732-.072a4.4,4.4,0,0,0,.834-.076,3.464,3.464,0,0,1,.609.146l.139-.088a.449.449,0,0,1,.3-.029l.192.048a2,2,0,0,0,.752.093l.189-.041.279-.06a5.522,5.522,0,0,0,1.145-.037l.229.231.461-.181.035-.027a2.823,2.823,0,0,1,.727,0c.363.027,1.324.252,1.391.263a2.975,2.975,0,0,0,.669-.183,2.166,2.166,0,0,1,.857.129c.03,0,.338.037.614.066s1.014.338,1.023.3a2.272,2.272,0,0,1,.06-.255c.026-.064.356.022.531,0s.649.016.605.178.709.225.688.161,0-.254.089-.28a1.356,1.356,0,0,1,.51.093c.147.052.7-.019.821.01s.536.124.65.154a1.144,1.144,0,0,0,.56-.113c.1-.066.449.13.53.131s.383-.043.49-.028.462.14.6.169l.138-.071.048-.024c.136.09.1.26-.089.376l.4.016c.194.007.363,0,.318-.219l-.029-.143a1.464,1.464,0,0,1,.656.028l.072.147c.072.146-.072.2-.251.2h-.019a.221.221,0,0,0,.2.258l.054-.043c.133-.106.2-.278.342-.361l.14-.078c.229-.019.42.035.426.122a.9.9,0,0,0,.363.493c.188.1.739-.112.755-.114s.246.047.476.1.815-.021.741.023a.831.831,0,0,0-.194.472v.311a.462.462,0,0,0,.231.419c.127.048.448.295.439.447s-.489.308-.489.206-.058-.426-.13-.359a.811.811,0,0,0-.2.432c.005.127.389.378.554.328s.628-.109.563,0a.64.64,0,0,0,.015.434c.034.083.135.391.187.488l.068.01c.217.03.229.137.148.246l-.08.108a1.817,1.817,0,0,1-.44-.232c-.014-.03-.112-.127-.131-.026s-.154.355-.237.233a1.116,1.116,0,0,1-.142-.371c-.013-.07-.175-.212-.241-.136s-.185.283-.288.33a2.923,2.923,0,0,1-.78.345l-.288-.046-.285-.046a1.982,1.982,0,0,1-.681-.045c-.044-.039-.254-.131-.341-.085a4.039,4.039,0,0,0-.446.267c-.06.056-.391-.028-.514.039s-.631-.06-.761.018-.618-.181-.781-.208a6.892,6.892,0,0,1-.935.057l-.221-.007-.158,0a4.012,4.012,0,0,1-.415,0c-.049-.007-.61.026-1.152.043s-2.111.08-2.289.043-.949.046-1.263.043l-.261-.075-.17-.049c-.114.051-.32.13-.457.176l-.07-.036-.488-.25a7.553,7.553,0,0,1-1.4.064c-.2-.032-.92.034-1.13.036s-.947.011-1.167.005-.763-.1-.837.121l-.317-.118-.234-.088a2.7,2.7,0,0,1-.839,0l-.174.043-.211.053a.843.843,0,0,0-.533.033c-.1.063-.562-.215-.808-.3s-1.023.256-1.26.254a4.4,4.4,0,0,1-1.028-.086c-.108-.072-.61.073-.751.092s-.593.031-.694.069a3.132,3.132,0,0,1-.671-.009,5.166,5.166,0,0,0-.746-.007,1.385,1.385,0,0,1-.475-.141c-.024,0-.475.094-.96.2a7.852,7.852,0,0,1-1.548.021c-.125,0-.692.034-1,.073s-1.466-.179-1.935-.207a12.571,12.571,0,0,0-1.762.257c-.055-.006-.531-.1-.936-.183l-.334.175c-.156.082-.242-.2-.4,0l-.1.13a5.836,5.836,0,0,0-1.726-.24l-.725.055-.185.014c-.177-.016-.541-.057-.808-.091l-.078.083c-.175.187-.262-.1-.4,0-.2.144-.388-.054-.584-.074l-.21-.02a1.534,1.534,0,0,0-.581.229c-.113.091-.578-.1-.731-.043s-.654-.177-.808-.219-.53.171-.556.177-.453-.049-.92-.1l-.431.072-.214.036a2.444,2.444,0,0,0-.687.087c-.148.051-.655-.171-.92-.152a11.052,11.052,0,0,1-1.536.008l-.265.2-.055.042a4.787,4.787,0,0,0-1.175-.157c-.442-.011-1.671.192-1.788.14s-.548.1-.662.141-.419-.093-.441-.082-.244.089-.442.159l-.186.018-.137.013a2.485,2.485,0,0,0-.591-.085l-.114.053-.224.1a2.273,2.273,0,0,0-.614-.1,1.554,1.554,0,0,0-.61.169c-.1.093-.534-.1-.65-.114a6.435,6.435,0,0,0-.659.191c-.166.024-.765,0-.932.016s-.926.112-1.319.15-1.617.088-1.846.08-.874.181-1.033.187-.741.106-.937.122-.873.124-1.061.117a8.543,8.543,0,0,0-1.063.27c-.231.053-1.086.06-1.347.07a9.339,9.339,0,0,0-1.085.239c-.092.017-.457.025-.605.026s-.556.164-.687.177a8.122,8.122,0,0,0-1.039.217c-.311.1-1.451.286-1.783.328a8.923,8.923,0,0,1-1.295.287c-.11-.073-.415.149-.5.143a2.976,2.976,0,0,0-.51.135c-.115.035-.466.189-.572.214s-.566.162-.824.229-1.14.334-1.4.4a18.939,18.939,0,0,0-1.833.6l-.487.074-.206.031a3.493,3.493,0,0,0-.628.191,5.621,5.621,0,0,1-.608.143,2.731,2.731,0,0,1-.737.085c-.179-.029-1.118.359-1.786.54l-.647.03a3.753,3.753,0,0,0-.553.024c-.21.043-.4.164-.61.187l-.142.015a.591.591,0,0,0-.511,0c-.11.076-.6-.076-.723-.115s-.506-.154-.583-.173-.3.016-.382-.031-.432.064-.523.1a3.925,3.925,0,0,1-1.1-.179l-.393-.129-.044-.014c-.012-.1-.083-.139-.158-.081a1.29,1.29,0,0,1-.829.033,3.262,3.262,0,0,1-1.095-1.08l-.412-.087-.2-.042a5.915,5.915,0,0,0-.412-.768,5.663,5.663,0,0,0-.589-.692c-.171-.141-.206-.686-.235-.708a1.648,1.648,0,0,0-.243-.122,3.2,3.2,0,0,1-.492-.591l-.382-.127a7.14,7.14,0,0,1-.889-.527c-.089-.044-.274.046-.417.064-.229.028-.463.032-.687.074l-.239.045c-.251.083-.547.177-.658.209a1.427,1.427,0,0,1-.562-.059c-.1-.043-.369.182-.553.157l-.169-.009a2.493,2.493,0,0,0-.656,0l-.372.085a7.878,7.878,0,0,1-1.025.185c-.152,0-.339.353-.462.386a5.925,5.925,0,0,1-.714.133,4.328,4.328,0,0,0-.884.22,5.262,5.262,0,0,1-.947.118c-.034.011-.158.108-.267.179s-.591.21-.715.285-.715.141-.928.2-.856.3-.993.3a1.709,1.709,0,0,1-.807-.01l.074.385c0,.02-.08.071-.128.075l-.263.02a2.869,2.869,0,0,1-.706.339c-.178.046-.821.191-1.021.246s-.8.216-.9.238-.334.178-.488.069-.473.345-.55.4l-.062-.009c-.344-.051-.578.154-.868.221l-.151.035a.763.763,0,0,1-.328.124c-.058-.006-.209.049-.208.137s-.315-.026-.376,0a2.363,2.363,0,0,1-.681-.01l-.067.308-.033.151c-.3.029-.751.079-.995.112s-.834.33-.9.312a7.589,7.589,0,0,0-1.25.031l-.168.514-.069.213a.551.551,0,0,0-.526-.143,4.547,4.547,0,0,0-.937.417l-.17-.242a.452.452,0,0,0-.225.058l-.307.214a4.669,4.669,0,0,0-.89.275c-.137.074-.69.022-.92.181l-.3-.006c-.179,0,.055.3-.253.229l-.118-.028a.753.753,0,0,0-.386.1c-.076.056-.341-.073-.453-.023a1.657,1.657,0,0,0-.564.471l-.3-.1-.091-.032a1.5,1.5,0,0,1-.608.252l-.123-.012-.164-.016c-.173.015-.764.135-1.314.265l-.453.217c-.083.039-.116.152-.258.042l-.162-.126a1.434,1.434,0,0,1-.4.343l-.127,0-.263.006a4.132,4.132,0,0,0-.481.242,4.682,4.682,0,0,1-.66.145l-.286.143-.258.13a1.328,1.328,0,0,1-.713.107c-.044-.053-.324.008-.421-.051s-.225.24-.33.257l-.1,0-.064,0a.619.619,0,0,0-.424.126l-.168.079a1.474,1.474,0,0,1-.562.129l-.1.008a3.787,3.787,0,0,0-.511.362c-.174.144-.891-.07-1.022-.059s-.485.2-.637.231a4.281,4.281,0,0,1-.786.125c-.137-.022-.365.3-.528.321a2.181,2.181,0,0,1-.7-.129c-.092-.047-.355.242-.495.3a.383.383,0,0,1-.371-.047c-.062-.062-.435.074-.564.137s-.514.154-.568.063-.453.086-.558.137l-.016-.014c-.252-.222-.371-.011-.527.095l-.025.018a.5.5,0,0,0-.255.09c-.089.056-.351-.106-.375-.151a.223.223,0,0,0-.309.016c-.112.119-.563.009-.541-.028s-.061-.1-.231-.07a3.511,3.511,0,0,1-.813-.123c-.113-.022-.543,0-.673,0s-.953,0-1.54-.022a7.1,7.1,0,0,1-2.046-.449c-.065-.11-.738-.2-1-.29l-.124-.158-.154-.2a3.688,3.688,0,0,1-.48-.308,2.135,2.135,0,0,0-.395-.2,4.653,4.653,0,0,1-.588-.506c-.108-.083-.109-.5-.2-.61a1.18,1.18,0,0,1-.2-.6c.037-.088-.278-.177-.282-.217l.014-.03c.109-.219-.032-.361-.245-.447l-.115-.047a.954.954,0,0,1,.277-.231l.023-.142.016-.1c.114-.176.093-.26-.045-.187a1.767,1.767,0,0,1-.485.188,1.925,1.925,0,0,1,.16-.453c.051-.125-.223-.451-.271-.506s-.08-.265-.261-.332l.007-.038.051-.25a4.414,4.414,0,0,1-.357-.855c-.066-.241-.52-.924-.564-1.067l-.057-.126-.087-.2a5.981,5.981,0,0,1-.5-1.278l0-.043a1.386,1.386,0,0,0,.013-.534l-.217-.582a4.825,4.825,0,0,0,.1-1.337l.025-.082.032-.107a3.116,3.116,0,0,0,.2-.75l.566-.525.02-.018a.409.409,0,0,1,.051-.229c.042-.083-.072-.3.025-.357s.317-.531.527-.811l.12-.261c.082-.177.118-.363.311-.472l.3-.168c-.029-.279.029-.52.129-.535s.361-.1.279-.128-.245-.133-.178-.153.223-.085.214-.1a.96.96,0,0,0-.224-.161,2.137,2.137,0,0,0-.788.123c-.2.063-.909.316-1.179.372s-.9.409-.961.378l-.063-.03-.629.177c-.143.068-.282.143-.43.2l-.1.039a.482.482,0,0,0-.288.264l-.176.019-.105.011c-.11.045-.435.148-.723.229s-1.11.513-1.3.573l-.18.054-.154.046a8.868,8.868,0,0,0-.818.367c-.286.144-1.289.585-1.577.692a8.151,8.151,0,0,0-1.221.552,2.771,2.771,0,0,1-.668.3c-.139.049-.648.212-.82.256a2.666,2.666,0,0,0-.629.231,1.624,1.624,0,0,1-.661.433c-.378.154-1.777.723-2.274.92l-.368.317a4.668,4.668,0,0,1-.659.571l-.252.149c-.269.172-.677.466-.907.654a12.555,12.555,0,0,1-1.242.591,1.117,1.117,0,0,1-.629.164l-.132-.023-.274-.048a1.828,1.828,0,0,0-.8.047c-.137.066-.5-.122-.523-.1a1.714,1.714,0,0,1-.468.048l.056-.208a1.917,1.917,0,0,1,.1-.184c.076-.192.227-.371-.2-.464-.182-.039-.472-.215-.43-.487.026-.158-.093-.167-.249-.211l-.125-.035a4.109,4.109,0,0,0-.719-.794l.2-.384,0-.009c-.035-.023-.283-.2-.551-.393l-.029-.337-.023-.271a2.925,2.925,0,0,1-.437-.832,1.925,1.925,0,0,1,.142-.811l-.166-.112c-.026-.018-.02-.113.011-.133l.1-.062c.122-.053.161-.167.086-.254l.133-.1a.391.391,0,0,0,.125-.243c.014-.082-.064-.186-.025-.251a1.678,1.678,0,0,1,.279-.268l.2-.195c.218-.208.337-.464.265-.568s.383-.218.472-.3.466-.184.455-.231.163-.235.274-.335.494-.309.544-.346a1.373,1.373,0,0,0,.168-.281,3.3,3.3,0,0,1,.416-.33,5.805,5.805,0,0,1,.955-.353c.105-.043.333-.329.449-.4s.374-.3.4-.246.122.121.142-.036.586-.475.827-.667l.344.144c.026.011.108-.036.141-.07.1-.108.2-.22.295-.334.115-.14.187-.055.322,0,.173.067.384.043.138-.177a.859.859,0,0,1,.248-.21c.052-.026.212.066.238.043l.394-.355a4.161,4.161,0,0,0,1.15-.437l.066-.057.03-.026a2.571,2.571,0,0,1,.427.136l.057-.143.031-.078c-.1-.144-.089-.257.026-.25a3.993,3.993,0,0,0,.621-.068,1.89,1.89,0,0,0,.645-.531l.2-.1.1-.053a5.853,5.853,0,0,0,1.14-.137l.1-.347a.706.706,0,0,1,.179,0c.1.007.235.056.3.02l.111-.064c-.02-.129.1-.21.271-.179l.136-.03a1.446,1.446,0,0,0,.43-.2l.139-.083a.573.573,0,0,1,.345-.184.778.778,0,0,0,.4-.188l.125-.029.118-.028a1.507,1.507,0,0,0,.469.065l.065-.041.116-.072c.11-.1.229-.214.264-.255a.3.3,0,0,1,.313,0l.077.026.264.091a2.984,2.984,0,0,1,.948-.326l.217-.116.131-.07a.468.468,0,0,1,.451-.1c.093.062.344-.2.476-.21a2.083,2.083,0,0,0,.649-.127c.1-.08.445.14.529.147a4.3,4.3,0,0,0,.7-.231l.267,0c.175,0,.395,0,.562.015s.17,0,.187-.1l.007-.042c.034-.043.146-.034.25.02s.438-.113.525-.116.784-.016,1.354-.03,2.1.278,2.182.251a.947.947,0,0,1,.478.11l.166-.087a1.131,1.131,0,0,1,.371-.026c.236-.018.485.125.723-.056l.027-.021c.234.153.44.21.459.125s.491-.1.67-.065a3.648,3.648,0,0,1,.819.466,2.346,2.346,0,0,0,.7.2,2.618,2.618,0,0,1,.484.267c.219.137.624.664.573.733s.217.3.277.373.273.319.344.389a1.6,1.6,0,0,1,.218.549c.025.15.131.6.168.529s.133-.089.158.062a4.465,4.465,0,0,1,.16.834,3.645,3.645,0,0,0,.314,1.008c.112.269.444,1.012.569,1.034s.581.556.732.6-.01.382.081.441.271.244.231.306a.515.515,0,0,0,.028.331,4.2,4.2,0,0,0,.365.941l-.35,0h-.026a.854.854,0,0,0-.073.269,4.444,4.444,0,0,0,.062.766l-.225.2a.8.8,0,0,0-.19.576v.16a1.474,1.474,0,0,0-.452.39l-.068.16-.062.148a1.958,1.958,0,0,1-.256.447,2.115,2.115,0,0,0-.28.489,1.559,1.559,0,0,0-.133.51c.022.151-.5.326-.556.439s-.341.559-.441.749-.561.933-.734,1.246l-.177.277c-.179.279-.4.541-.574.82l-.046.072c.022.12.28.173.575.118a11.01,11.01,0,0,1,1.211,0l.049-.114.079-.187c.137.085.3.122.364.08a3.351,3.351,0,0,1,.683-.158c.231-.031.736-.246.778-.107s.531-.085.778-.145.873-.43,1.008-.457.524-.21.645-.211a1.919,1.919,0,0,0,.527-.156c.076-.043.348.051.4.039s.217-.1.3-.141a1.868,1.868,0,0,1,.53-.049,8.493,8.493,0,0,0,1.223-.547l.523-.049.334-.031a8.051,8.051,0,0,0,.857-.193l.092-.049.227-.12a1.412,1.412,0,0,0,.579-.137.556.556,0,0,1,.258-.177c.073,0,.326-.026.405-.034a1.676,1.676,0,0,0,.55-.417l.269.246a.288.288,0,0,0,.177-.07Z" transform="translate(0)" fill="#00649e"></path></g></svg>