<svg xmlns="http://www.w3.org/2000/svg" width="30" height="30" viewBox="0 0 30 30">
  <g id="_AR_VR" data-name=" AR VR" transform="translate(-10396 14035)">
    <g id="Group_1059835" data-name="Group 1059835" transform="translate(10219 -14231)">
      <rect id="Rectangle_141108" data-name="Rectangle 141108" width="30" height="30" rx="5" transform="translate(177 196)" fill="#ecfffe"/>
    </g>
    <g id="Line" transform="translate(10399 -14037)">
      <path id="Path_1570553" data-name="Path 1570553" d="M22.286,12H20.681a1.358,1.358,0,0,0-1.221.755l-.078.156h4.2l-.078-.156A1.357,1.357,0,0,0,22.286,12Z" transform="translate(-9.472)" fill="#149a91"/>
      <path id="Path_1570554" data-name="Path 1570554" d="M3.341,25.424a4.068,4.068,0,0,1-.431-1.818V19.965a3.169,3.169,0,0,1,.122-.864A1.364,1.364,0,0,0,2,20.42v3.641A1.366,1.366,0,0,0,3.341,25.424Z" transform="translate(0 -3.869)" fill="#149a91"/>
      <path id="Path_1570555" data-name="Path 1570555" d="M43.362,19.1a3.169,3.169,0,0,1,.122.864v3.641a4.068,4.068,0,0,1-.431,1.818,1.366,1.366,0,0,0,1.341-1.363V20.42A1.364,1.364,0,0,0,43.362,19.1Z" transform="translate(-22.371 -3.869)" fill="#149a91"/>
      <path id="Path_1570556" data-name="Path 1570556" d="M20.107,16H8.275A2.277,2.277,0,0,0,6,18.275v3.641a3.141,3.141,0,0,0,.559,1.8A3.2,3.2,0,0,0,9.186,25.1h2.579a2.593,2.593,0,0,0,1.608-.637,1.4,1.4,0,0,1,1.638,0,2.5,2.5,0,0,0,1.608.637H19.2a3.189,3.189,0,0,0,3.186-3.186V18.275A2.285,2.285,0,0,0,20.107,16ZM9.185,18.731h-.91a.455.455,0,0,1,0-.91h.91A.455.455,0,1,1,9.185,18.731Z" transform="translate(-2.18 -2.18)" fill="#149a91"/>
    </g>
  </g>
</svg>
