<svg xmlns="http://www.w3.org/2000/svg" width="30" height="30" viewBox="0 0 30 30">
  <g id="Cryptocurrency_Development" data-name="Cryptocurrency Development" transform="translate(-212 -275)">
    <g id="Group_1059835" data-name="Group 1059835" transform="translate(35 79)">
      <rect id="Rectangle_141108" data-name="Rectangle 141108" width="30" height="30" rx="5" transform="translate(177 196)" fill="#def4ff"/>
    </g>
    <g id="vuesax_bold_bitcoin-_btc_" data-name="vuesax/bold/bitcoin-(btc)" transform="translate(217 280)">
      <g id="bitcoin-_btc_" data-name="bitcoin-(btc)">
        <path id="BG_203" data-name="BG 203" d="M0,0H20V20H0Z" fill="none"/>
        <path id="Vector" d="M4.533,0H0V2.358H4.533A1.337,1.337,0,0,0,5.975,1.175,1.331,1.331,0,0,0,4.533,0Z" transform="translate(7.942 10.625)" fill="#50abe8"/>
        <path id="Vector-2" data-name="Vector" d="M8.333,0a8.333,8.333,0,1,0,8.333,8.333A8.336,8.336,0,0,0,8.333,0Zm2.475,12.567H9.433V13.75a.625.625,0,0,1-1.25,0V12.567H7.175V13.75a.625.625,0,0,1-1.25,0V12.567H4.208a.625.625,0,0,1,0-1.25h.817V5.35H4.208a.625.625,0,0,1,0-1.25H5.925V2.917a.625.625,0,0,1,1.25,0V4.1H8.183V2.917a.625.625,0,0,1,1.25,0V4.1h.733A2.5,2.5,0,0,1,12.6,6.533a2.444,2.444,0,0,1-.517,1.483A2.4,2.4,0,0,1,13.5,10.15,2.574,2.574,0,0,1,10.808,12.567Z" transform="translate(1.667 1.667)" fill="#50abe8"/>
        <path id="Vector-3" data-name="Vector" d="M5.075,1.183A1.245,1.245,0,0,0,3.892,0H0V2.358H3.892A1.175,1.175,0,0,0,5.075,1.183Z" transform="translate(7.942 7.008)" fill="#50abe8"/>
        <path id="Vector-4" data-name="Vector" d="M0,0H20V20H0Z" fill="none" opacity="0"/>
      </g>
    </g>
  </g>
</svg>
