<svg xmlns="http://www.w3.org/2000/svg" width="30" height="30" viewBox="0 0 30 30">
  <g id="Digital_Marketing" data-name="Digital Marketing" transform="translate(-570 -175)">
    <g id="Group_1059835" data-name="Group 1059835" transform="translate(393 -21)">
      <rect id="Rectangle_141108" data-name="Rectangle 141108" width="30" height="30" rx="5" transform="translate(177 196)" fill="#ffd8d6"/>
    </g>
    <g id="paper" transform="translate(574.498 176.23)">
      <path id="Path_1458068" data-name="Path 1458068" d="M24.9,18.172s2.98,2.975,4.086,4.086a.293.293,0,0,0,.472-.085L35.1,9.679c.027-.049-10.2,8.492-10.2,8.492Z" transform="translate(-15.871 -2.062)" fill="#c05652"/>
      <path id="Path_1458069" data-name="Path 1458069" d="M19.116,6.784a.73.73,0,0,0-.318.006L3.061,10.523a.734.734,0,0,0-.542.557.723.723,0,0,0,.265.729L6.13,14.4S18.478,7.16,19.116,6.784Z" transform="translate(0 0)" fill="#c05652"/>
      <path id="Path_1458070" data-name="Path 1458070" d="M16.906,19.345l-.1,2.553c.889-.718,10.329-8.539,10.36-8.568C27.114,13.354,17.062,19.255,16.906,19.345Z" transform="translate(-10.138 -4.649)" fill="#c05652"/>
      <path id="Path_1458071" data-name="Path 1458071" d="M18.5,39.76c-.239.189-1.786,1.43-2.043,1.635l-.1,2.716a.293.293,0,0,0,.487.227l.294-.271.015-.015,2.943-2.7c-.18-.175-1.433-1.433-1.594-1.594Z" transform="translate(-9.819 -23.376)" fill="#c05652"/>
    </g>
  </g>
</svg>
