<svg xmlns="http://www.w3.org/2000/svg" width="30" height="30" viewBox="0 0 30 30">
  <g id="MVP_Development" data-name="MVP Development" transform="translate(-570 -125)">
    <g id="Group_1059835" data-name="Group 1059835" transform="translate(393 -71)">
      <rect id="Rectangle_141108" data-name="Rectangle 141108" width="30" height="30" rx="5" transform="translate(177 196)" fill="#a4f4ee"/>
    </g>
    <g id="Layer_1" transform="translate(52.143 -171.535)">
      <g id="Group_1072110" data-name="Group 1072110" transform="translate(524.878 302.4)">
        <path id="Path_1458063" data-name="Path 1458063" d="M2548.1,385.9v2.6h2.644Z" transform="translate(-2536.7 -385.43)" fill="#5bb3ad" fill-rule="evenodd"/>
        <path id="Path_1458064" data-name="Path 1458064" d="M772.6,302.4v11.164h13.139v-7.413h-3.476a.341.341,0,0,1-.341-.341V302.4Zm4.1,5.809a.34.34,0,0,1,.012.481l-1.115,1.168,1.115,1.169a.34.34,0,0,1-.493.469l-1.327-1.39a.34.34,0,0,1-.011-.482h0l1.338-1.4A.34.34,0,0,1,776.7,308.209Zm2.741-.168a.339.339,0,0,1,.641.221l-1.181,3.414a.339.339,0,1,1-.641-.221Zm2.2.168a.34.34,0,0,1,.481.012l1.338,1.4h0a.341.341,0,0,1-.011.482l-.006.006-1.321,1.385a.34.34,0,1,1-.492-.469l1.114-1.169-1.114-1.169A.339.339,0,0,1,781.641,308.209Z" transform="translate(-771.204 -302.4)" fill="#5bb3ad" fill-rule="evenodd"/>
        <path id="Path_1458065" data-name="Path 1458065" d="M535.685,2406.986v.876a.341.341,0,1,1-.682,0v-2.515a.341.341,0,0,1,.341-.341h.928a.99.99,0,0,1,0,1.98Zm-1.148-1.416-1.13,2.515h0a.341.341,0,0,1-.631-.025l-1.12-2.491a.34.34,0,0,1,.62-.277l.82,1.825.82-1.825a.339.339,0,1,1,.62.277Zm-3.3-.136v2.512a.341.341,0,1,1-.682,0v-1.287l-.421.7a.341.341,0,0,1-.6.024h0l-.435-.725v1.287a.341.341,0,1,1-.682,0v-2.514a.341.341,0,0,1,.646-.151l.762,1.27.776-1.293h0a.341.341,0,0,1,.633.178Zm-6.362,3.471a.028.028,0,0,0,.009.02c.012.013-.749.008,15.892.008a.029.029,0,0,0,.029-.029c0-4.808.008-4.521-.008-4.536s-15.894-.018-15.912,0S524.882,2404.1,524.879,2408.9Z" transform="translate(-524.878 -2392.514)" fill="#5bb3ad" fill-rule="evenodd"/>
        <path id="Path_1458066" data-name="Path 1458066" d="M2442.8,2640.4v.618h.587a.309.309,0,1,0,0-.617h-.587Z" transform="translate(-2431.994 -2627.226)" fill="#5bb3ad" fill-rule="evenodd"/>
        <path id="Path_1458067" data-name="Path 1458067" d="M772.6,3337.4h13.139v1.379H772.6Z" transform="translate(-771.204 -3320.299)" fill="#5bb3ad" fill-rule="evenodd"/>
      </g>
    </g>
  </g>
</svg>
