<svg xmlns="http://www.w3.org/2000/svg" width="30" height="30" viewBox="0 0 30 30">
  <g id="Real_Estate" data-name="Real Estate" transform="translate(-10398 14090)">
    <rect id="Rectangle_141108" data-name="Rectangle 141108" width="30" height="30" rx="5" transform="translate(10398 -14090)" fill="#e2eaff"/>
    <g id="Group_1138362" data-name="Group 1138362" transform="translate(10405 -14083.019)">
      <path id="Path_1570547" data-name="Path 1570547" d="M91.919.019H88.156V2.314l3.763-.627Z" transform="translate(-85.303 0)" fill="#04f"/>
      <path id="Path_1570548" data-name="Path 1570548" d="M14.9,89.008V78.144H8.771V89.008H7.8V75.864L1.67,76.886V89.008H0v.971H16.571v-.971ZM12.5,79.54h1.031v.971H12.5Zm0,2.367h1.031v.971H12.5Zm0,2.367h1.031v.971H12.5Zm0,2.367h1.031v.971H12.5Zm-2.367-7.1h1.031v.971H10.137Zm0,2.367h1.031v.971H10.137Zm0,2.367h1.031v.971H10.137Zm0,2.367h1.031v.971H10.137ZM5.4,77.173H6.434v.971H5.4Zm0,2.367H6.434v.971H5.4Zm0,2.367H6.434v.971H5.4Zm0,2.367H6.434v.971H5.4ZM3.036,79.54H4.067v.971H3.036Zm0,2.367H4.067v.971H3.036Zm0,2.367H4.067v.971H3.036Zm.03,2.367H6.4v2.367H5.433v-1.4h-1.4v1.4H3.066Z" transform="translate(0 -73.39)" fill="#04f"/>
    </g>
  </g>
</svg>
